<svg width="46.667" height="45.333" xmlns="http://www.w3.org/2000/svg"><path style="opacity:.99;fill:#e2e8f0;stroke:#fbffff;stroke-width:1.13386;stroke-linecap:round;stroke-linejoin:round;stroke-dasharray:none;paint-order:stroke fill markers;fill-opacity:1;stroke-opacity:1" d="M2.24 10.86c-.25-4.133 3.152-7.71 7.251-7.64l28.577-.238c3.38.04 6.545 2.209 6.824 5.73l.256 30.002c-.01 2.802-1.01 4.904-4.118 5.126l-32.989-.112c-3.848-.027-6.206-.539-5.715-6.128Z"/><path style="opacity:.99;fill:none;stroke:#089b93;stroke-width:5.26772;stroke-linecap:round;stroke-linejoin:round;paint-order:stroke fill markers" d="M13.909 35.413a15.467 15.94 0 0 1-2.884-21.937 15.467 15.94 0 0 1 21.172-3.749 15.467 15.94 0 0 1 4.387 21.671"/><path style="opacity:.99;fill:#089b93;fill-opacity:1;stroke:#089b93;stroke-width:2.26772;stroke-linecap:round;stroke-linejoin:round;paint-order:stroke fill markers" d="m31.529 33.078-1.447 4.192 12.769-3.61-8.834-9.518z"/></svg>